<?xml version="1.0" encoding="utf-8"?>
<!-- Generator: Adobe Illustrator 16.0.0, SVG Export Plug-In . SVG Version: 6.00 Build 0)  -->
<!DOCTYPE svg PUBLIC "-//W3C//DTD SVG 1.1//EN" "http://www.w3.org/Graphics/SVG/1.1/DTD/svg11.dtd">
<svg version="1.1" id="Ebene_1" xmlns="http://www.w3.org/2000/svg" xmlns:xlink="http://www.w3.org/1999/xlink" x="0px" y="0px"
	 width="408.25px" height="149.25px" viewBox="0 0 408.25 149.25" enable-background="new 0 0 408.25 149.25" xml:space="preserve">
<g>
	<polygon points="118.5,65 118.5,24.5 127.25,24.5 127.25,65 118.5,65 	"/>
	<polygon points="155.25,65 155.25,47.25 155.25,47.25 155.25,45.75 155,44.75 154.5,43.75 153.75,43 153,42.5 152.25,42 151,41.75 
		150,41.75 150,41.75 148.75,41.75 147.75,42 146,42.75 144.5,44 143.25,45.25 143.25,65 135.5,65 135.5,35.5 143.25,35.5 
		143.25,39.5 143.25,39.5 145,37.75 147.25,36.25 148.75,35.75 150.25,35.25 151.75,35 153.5,34.75 153.5,34.75 155.75,35 
		157.75,35.5 159.25,36.25 160.75,37.5 161.75,38.75 162.5,40.25 163,42.25 163,44.25 163,65 155.25,65 	"/>
	<path d="M191.25,65v-3.75l0,0l-2,1.75l-2,1.5l-2.5,1l-2.5,0.25l0,0l-2.75-0.25l-2.5-0.75l-2.25-1.25L173,61.75l-1.75-2.25l-1-2.75
		l-0.75-3l-0.25-3.5l0,0L169.5,47l0.75-3.25l1-2.5L173,39l1.75-1.75L177,36l2.5-0.75l2.75-0.5l0,0l2.5,0.5l2.5,0.75l1,0.75l1,0.75
		l1,0.75l1,1V24.5H199V65H191.25L191.25,65z M191.25,55.5V45l0,0L190,43.75l-1.5-1l-2-0.75l-2-0.25l0,0L183,42l-1.5,0.25L180.25,43
		l-1,1l-1,1.25l-0.5,1.5l-0.5,1.75v1.75l0,0V52l0.5,1.75l0.5,1.5l1,1.25l1,1l1.25,0.75l1.5,0.5h1.5l0,0l2-0.25l2-0.75l1.5-1
		L191.25,55.5L191.25,55.5L191.25,55.5z"/>
	<path d="M205.25,50.25L205.25,50.25l0.25-3l0.75-3l1.5-2.5l1.75-2.5l2.25-1.75l1.25-0.75l1.25-0.75l1.5-0.5l1.5-0.25l1.5-0.25
		l1.75-0.25l0,0L222,35l1.5,0.25l1.5,0.25l1.25,0.5l1.5,0.75L229,37.5l1,0.75l1,1l1,1.25l0.75,1.25L234,44.5l0.75,3L235,51v1.75
		h-21.75l0,0L213.5,54l0.5,1.25l0.75,1.25l1,1l1.25,0.75l1.25,0.75l1.75,0.5h1.75l0,0l2-0.25l2-0.5l2.25-1l1.5-1.25l3.5,5l0,0
		l-1.25,1l-1.25,0.75L229,64l-1.5,0.75l-3.25,0.75l-3.5,0.25l0,0l-3.25-0.25l-2.75-1L212,63.25l-1.25-0.75l-1-1l-1-1l-1-1.25L207,58
		l-0.75-1.25l-0.5-1.5l-0.25-1.75l-0.25-1.5V50.25L205.25,50.25L205.25,50.25z M220.5,41L220.5,41l-1.75,0.25l-1.5,0.25L216,42.25
		l-1,1l-0.75,1l-0.5,1l-0.5,1.25v1h14.25l0,0v-1l-0.5-1.25l-0.5-1l-0.75-1l-1-1l-1-0.75l-1.5-0.25L220.5,41L220.5,41L220.5,41z"/>
	<polygon points="241,65 241,35.5 248.75,35.5 248.75,39.5 248.75,39.5 250.5,37.75 252.75,36.25 254,35.75 255.5,35.25 256.75,35 
		258,34.75 258,42.5 258,42.5 256,42.25 256,42.25 254,42.5 252,43.25 250,44.25 249.25,44.75 248.75,45.5 248.75,65 241,65 	"/>
	<path d="M263,65V24.5h7.75v14.75l0,0l0.75-1l1-0.75l1-0.75l1.25-0.75l2.5-0.75l2.5-0.5l0,0l2.75,0.5L285,36l2,1.25l2,1.75l1.5,2.25
		l1.25,2.5L292.5,47l0.25,3.25l0,0l-0.25,3.5l-0.75,3l-1.25,2.75l-1.5,2.25l-2,1.75l-2.25,1.25l-2.25,0.75l-2.75,0.25l0,0L277,65.5
		l-2.25-1L272.5,63l-1.75-1.75V65H263L263,65z M277.25,58.75L277.25,58.75H279l1.25-0.5l1.25-0.75l1.25-1l0.75-1.25l0.75-1.5
		l0.25-1.5l0.25-2l0,0l-0.25-1.75l-0.25-1.75l-0.75-1.5L282.75,44l-1.25-1l-1.25-0.75L279,42l-1.75-0.25l0,0l-2,0.25l-1.75,0.75
		l-1.75,1l-1,1.5V55.5l0,0l1,1.25L273.5,58l1.75,0.5L277.25,58.75L277.25,58.75L277.25,58.75z"/>
	<path d="M298,27.75L298,27.75l0.25-0.75l0.25-1l0.25-0.75l0.75-0.75L300,24l1-0.5l0.75-0.25h1l0,0h0.75l1,0.25l0.75,0.5l0.75,0.5
		l0.5,0.75L307,26l0.25,1v0.75l0,0v1L307,29.5l-0.5,1L306,31l-0.75,0.75L304.5,32l-1,0.25l-0.75,0.25l0,0l-1-0.25L301,32l-1-0.25
		L299.5,31l-0.75-0.5l-0.25-1l-0.25-0.75L298,27.75L298,27.75L298,27.75z M298.75,65V35.5h7.75V65H298.75L298.75,65z"/>
	<polygon points="316,57.75 316,42.25 311.25,42.25 311.25,35.5 316,35.5 316,27.5 323.75,27.5 323.75,35.5 329.75,35.5 
		329.75,42.25 323.75,42.25 323.75,55.5 323.75,55.5 324,56.75 324.5,58 325.25,58.5 326.5,58.75 326.5,58.75 328,58.5 329.25,58 
		330.75,63.75 330.75,63.75 329.75,64.5 328.25,65.25 326.5,65.5 324.25,65.75 324.25,65.75 322.5,65.5 320.75,65.25 319.25,64.5 
		318.25,63.75 317.25,62.5 316.5,61 316.25,59.5 316,57.75 316,57.75 	"/>
	<polygon points="334.75,65 334.75,59.25 348,42.25 334.75,42.25 334.75,35.5 358.5,35.5 358.5,41.25 345,58.25 358.5,58.25 
		358.5,65 334.75,65 	"/>
	<path d="M364.5,27.75L364.5,27.75V27l0.25-1l0.5-0.75l0.5-0.75l0.75-0.5l0.75-0.5l0.75-0.25h1l0,0h1l0.75,0.25l0.75,0.5l0.75,0.5
		l0.5,0.75l0.5,0.75l0.25,1v0.75l0,0v1l-0.25,0.75l-0.5,1l-0.5,0.5l-0.75,0.75L370.75,32L370,32.25l-1,0.25l0,0l-1-0.25L367.25,32
		l-0.75-0.25L365.75,31l-0.5-0.5l-0.5-1l-0.25-0.75V27.75L364.5,27.75L364.5,27.75z M365.25,65V35.5H373V65H365.25L365.25,65z"/>
	<polygon points="400.5,65 400.5,47.25 400.5,47.25 400.5,45.75 400.25,44.75 399.75,43.75 399,43 398.25,42.5 397.5,42 
		396.25,41.75 395.25,41.75 395.25,41.75 394,41.75 393,42 391.25,42.75 389.5,44 388.5,45.25 388.5,65 380.75,65 380.75,35.5 
		388.5,35.5 388.5,39.5 388.5,39.5 390.25,37.75 392.5,36.25 394,35.75 395.25,35.25 397,35 398.75,34.75 398.75,34.75 401,35 
		403,35.5 404.5,36.25 406,37.5 407,38.75 407.75,40.25 408.25,42.25 408.25,44.25 408.25,65 400.5,65 	"/>
	<polygon points="118.5,126.25 118.5,85.75 127.25,85.75 127.25,126.25 118.5,126.25 	"/>
	<polygon points="155.25,126.25 155.25,108.5 155.25,108.5 155.25,107 155,106 154.5,105 153.75,104.25 153,103.75 152.25,103.25 
		151,103 150,103 150,103 148.75,103 147.75,103.25 146,104 144.5,105.25 143.25,106.5 143.25,126.25 135.5,126.25 135.5,97 
		143.25,97 143.25,100.75 143.25,100.75 145,99 147.25,97.5 148.75,97 150.25,96.5 151.75,96.25 153.5,96.25 153.5,96.25 
		155.75,96.25 157.75,96.75 159.25,97.5 160.75,98.75 161.75,100 162.5,101.75 163,103.5 163,105.5 163,126.25 155.25,126.25 	"/>
	<polygon points="172.5,126.25 172.5,103.75 167.75,103.75 167.75,97 172.5,97 172.5,95.25 172.5,95.25 172.75,93 173.25,91 
		174.25,89.25 175.25,87.75 176.75,86.75 178.5,85.75 180.25,85.25 182.5,85 182.5,85 184.5,85.25 186.75,85.75 188.5,86.5 
		190.25,87.75 187.25,92.5 187.25,92.5 186.5,91.75 185.75,91.5 185,91.25 184,91.25 184,91.25 182.5,91.5 182,91.75 181.5,92.25 
		181,92.75 180.75,93.5 180.5,94.25 180.25,95.25 180.25,97 186.25,97 186.25,103.75 180.25,103.75 180.25,126.25 172.5,126.25 	"/>
	<path d="M189.25,111.5L189.25,111.5l0.25-3l0.75-3l1.25-2.5l1.75-2.25l1.25-1l1-1l1.25-0.75l1.5-0.5l1.5-0.75l1.5-0.25l1.75-0.25
		h1.75l0,0h1.75l1.75,0.25l1.5,0.25l1.5,0.75l1.5,0.5l1.25,0.75l1,1l1.25,1L218,103l1.25,2.5l0.75,3l0.25,3l0,0l-0.25,3l-0.75,3
		L218,120l-1.75,2.5l-1.25,1l-1,0.75l-1.25,0.75l-1.5,0.75l-1.5,0.5l-1.5,0.5L206.5,127h-1.75l0,0H203l-1.75-0.25l-1.5-0.5l-1.5-0.5
		l-1.5-0.75l-1.25-0.75l-1-0.75l-1.25-1l-1.75-2.5l-1.25-2.5l-0.75-3L189.25,111.5L189.25,111.5L189.25,111.5z M212.25,111.5
		L212.25,111.5v-1.75l-0.5-1.5l-0.5-1.5l-1-1.25l-1-1l-1.25-0.75l-1.5-0.5l-1.75-0.25l0,0l-1.75,0.25l-1.5,0.5l-1.25,0.75l-1,1
		l-1,1.25l-0.5,1.5l-0.5,1.5v1.75l0,0v1.75l0.5,1.5l0.5,1.5l1,1.25l1,1l1.25,1l1.5,0.5h1.75l0,0h1.75l1.5-0.5l1.25-1l1-1l1-1.25
		l0.5-1.5l0.5-1.5V111.5L212.25,111.5L212.25,111.5z"/>
	<polygon points="226.5,126.25 226.5,97 234,97 234,101 234,101 236,99 238.25,97.5 239.5,97 240.75,96.5 242,96.25 243.5,96.25 
		243.5,103.75 243.5,103.75 241.25,103.5 241.25,103.5 239.25,103.75 237.25,104.5 235.5,105.5 234.75,106.25 234,106.75 
		234,126.25 226.5,126.25 	"/>
	<polygon points="284.75,126.25 284.75,107.75 284.75,107.75 284.5,105.75 284.25,105 283.75,104.25 283,103.75 282.25,103.25 
		281.5,103 280.25,103 280.25,103 279.25,103 278.25,103.25 276.75,104.25 275.25,105.25 274.25,106.5 274.25,126.25 266.5,126.25 
		266.5,107.75 266.5,107.75 266.25,105.75 266,105 265.5,104.25 264.75,103.75 264,103.25 263.25,103 262,103 262,103 261,103 
		260.25,103.25 258.5,104.25 257,105.25 256,106.5 256,126.25 248.25,126.25 248.25,97 256,97 256,100.75 256,100.75 257.25,99.25 
		259.5,97.75 261,97.25 262.25,96.5 264,96.25 265.5,96.25 265.5,96.25 267.25,96.25 268.5,96.5 269.75,97 271,97.5 271.75,98.25 
		272.5,99.25 273.25,100.25 273.75,101.5 273.75,101.5 274.5,100.5 275.5,99.5 276.5,98.75 277.75,97.75 279,97.25 280.5,96.5 
		282.25,96.25 283.75,96.25 283.75,96.25 285.75,96.25 287.5,96.75 289,97.25 290.25,98.25 291.25,99.5 291.75,101 292.25,103 
		292.5,105 292.5,126.25 284.75,126.25 	"/>
	<path d="M318,126.25v-3l0,0l-0.75,0.75l-1,0.75L314,126l-2.5,0.75l-2.75,0.25l0,0l-1.75-0.25l-1.75-0.25l-1.75-0.75l-1.5-1.25
		l-1.5-1.25l-1-1.75l-0.75-2l-0.25-2.25l0,0l0.25-2.5l0.75-2l1-1.5L302,110l1.5-1l1.75-0.75L307,108l1.75-0.25l0,0l2.75,0.25
		l2.75,0.75l2,1l1,0.75l0.75,0.75v-3.75l0,0v-1.25l-0.5-1l-0.5-0.75l-0.75-0.75l-1-0.5l-1-0.5L313,102.5h-1.5l0,0l-2.25,0.25
		l-2.25,0.5l-2,1.25l-2,1.5l-3-5.25l0,0l1.5-1l1.5-1l1.5-0.75l1.75-0.75l1.5-0.5l1.75-0.25l3.5-0.25l0,0h2.5l2.25,0.5L320,97.5
		l1.75,1l1.75,1.5l0.75,1l0.5,1l0.5,1l0.25,1.25l0.25,1.5v1.5v19H318L318,126.25z M318,119.25v-3.75l0,0l-1-1l-1.5-0.75l-1.75-0.5
		l-2-0.25l0,0h-1l-1,0.25l-1,0.5l-0.75,0.5l-0.75,0.5l-0.5,0.75l-0.25,1l-0.25,1l0,0l0.25,1l0.25,0.75l0.5,0.75l0.75,0.5l0.75,0.5
		l1,0.5l1,0.25h1l0,0l2-0.25l1.75-0.5l1.5-0.75L318,119.25L318,119.25L318,119.25z"/>
	<polygon points="335,119 335,103.75 330.25,103.75 330.25,97 335,97 335,88.75 342.75,88.75 342.75,97 348.75,97 348.75,103.75 
		342.75,103.75 342.75,117 342.75,117 343,118.25 343.5,119.25 344.5,119.75 345.5,120 345.5,120 347.25,119.75 348.25,119.25 
		349.75,125 349.75,125 348.75,125.75 347.5,126.5 345.5,126.75 343.5,127 343.5,127 341.5,126.75 339.75,126.5 338.5,125.75 
		337.25,125 336.25,123.75 335.75,122.5 335.25,120.75 335,119 335,119 	"/>
	<path d="M354,89L354,89v-0.75l0.25-1l0.5-0.75l0.5-0.75l0.75-0.5l0.75-0.25l1-0.25l0.75-0.25l0,0l1,0.25l1,0.25l0.75,0.25l0.5,0.5
		l0.75,0.75l0.25,0.75l0.5,1V89l0,0v1l-0.5,1l-0.25,0.75l-0.75,0.5l-0.5,0.75l-0.75,0.25l-1,0.5h-1l0,0h-0.75l-1-0.5L356,93
		l-0.75-0.75l-0.5-0.5l-0.5-0.75L354,90V89L354,89L354,89z M354.75,126.25V97h7.75v29.25H354.75L354.75,126.25z"/>
	<polygon points="389.5,126.25 381.5,115 378,118.75 378,126.25 370.25,126.25 370.25,85.75 378,85.75 378,110 389.25,97 398.75,97 
		387,110.25 399,126.25 389.5,126.25 	"/>
	<polygon fill="#00B4E6" points="68.5,34.25 68.5,34.25 68.25,37.75 67.75,41.25 67,44.5 65.75,47.75 64.5,50.5 62.75,53.5 
		60.75,56 58.5,58.5 56,60.75 53.5,62.75 50.5,64.5 47.5,65.75 44.5,67 41.25,67.75 37.75,68.25 34.25,68.5 34.25,68.5 30.75,68.25 
		27.5,67.75 24,67 21,65.75 18,64.5 15.25,62.75 12.5,60.75 10,58.5 8,56 6,53.5 4.25,50.5 2.75,47.75 1.5,44.5 0.75,41.25 
		0.25,37.75 0,34.25 0,34.25 0.25,30.75 0.75,27.5 1.5,24.25 2.75,21 4.25,18 6,15.25 8,12.5 10,10 12.5,8 15.25,6 18,4.25 21,2.75 
		24,1.5 27.5,0.75 30.75,0.25 34.25,0 34.25,0 37.75,0.25 41.25,0.75 44.5,1.5 47.5,2.75 50.5,4.25 53.5,6 56,8 58.5,10 60.75,12.5 
		62.75,15.25 64.5,18 65.75,21 67,24.25 67.75,27.5 68.25,30.75 68.5,34.25 68.5,34.25 	"/>
	<polygon fill="#00B4E6" points="3.75,88 65,88 65,149.25 3.75,149.25 3.75,88 	"/>
</g>
</svg>
